<?xml version="1.0" encoding="utf-8"?>
<!-- Generator: Adobe Illustrator 13.0.0, SVG Export Plug-In . SVG Version: 6.00 Build 14948)  -->
<!DOCTYPE svg PUBLIC "-//W3C//DTD SVG 1.1 Tiny//EN" "http://www.w3.org/Graphics/SVG/1.1/DTD/svg11-tiny.dtd">
<svg version="1.1" baseProfile="tiny" id="Ebene_1" xmlns="http://www.w3.org/2000/svg" xmlns:xlink="http://www.w3.org/1999/xlink"
	 x="0px" y="0px" width="367.92px" height="424.8px" viewBox="0 0 367.92 424.8" xml:space="preserve">
<g>
	<path fill-rule="evenodd" fill="#DC0000" d="M182.88,0l13.14,7.516l-86.427,50.521c0,0-26.151,13.171-35.433,23.324
		c-11.362,12.427-7.917,30.124,2.16,42.48c24.693,30.278,88.659,54.366,141.121,34.56c22.224-8.39,122.082-68.803,122.082-68.803
		l28.397,16.243v213.12l-18,10.336V207.36l-56.88,32.661v121.936l-32.881,18.881V311.04l20.28-12.24v-51.543l-20.28,11.646
		c0,0-2.369-32.091,1.921-42.902c4.093-10.315,15.735-21.723,25.2-18.72c6.945,2.204,5.76,24.945,5.76,24.945
		s42.947-24.856,56.88-32.865c2.248-36.34-9.138-59.002-43.92-55.44c-15.873,1.626-28.377,10.019-38.88,17.28
		c-11.139,7.7-20.405,16.552-28.8,26.64c-15.896,19.1-33.02,45.258-35.28,76.32c-1.772,24.354,0.706,159.071,0.706,159.071
		L183.6,424.8L0,318.96V105.84L182.88,0z M115.2,167.04c-13.318-10.95-29.718-21.208-47.52-25.2
		c-11.942-2.678-23.931-1.128-32.4,3.6C12.952,157.906,6.436,190.877,8.64,223.2c3.508,51.445,22.065,86.146,48.96,113.04
		c17.977,17.977,47.576,39.661,74.16,41.76c27.702,2.187,36.335-16.023,42.48-36.72c-20.956-14.324-44.265-26.296-65.52-40.32
		c-3.909,2.99-3.572,6.328-9.36,6.48c-5.151,0.135-10.955-4.727-14.4-9.36c-6.09-8.19-8.026-21.054-8.64-30.96
		c33.779,18.062,66.363,37.317,100.08,55.439C180.088,255.29,153.296,198.361,115.2,167.04z"/>
	<path fill-rule="evenodd" fill="#DC0000" d="M280.459,55.813l-85.794,52.732c0,0-22.851,14.813-38.136,13.134
		c-4.981-0.547-13.306-4.77-13.68-8.64c-0.691-7.151,25.2-21.011,25.2-21.011l87.84-50.269L280.459,55.813z"/>
	<path fill-rule="evenodd" fill="#DC0000" d="M109.44,241.2c-11.231-5.809-21.966-12.114-32.4-18.72
		c1.032-7.922,2.438-15.645,12.24-13.681C100.771,211.103,109.097,229.486,109.44,241.2z"/>
</g>
</svg>
